<?xml version="1.0" encoding="utf-8"?>
<!-- Svg Vector Icons : http://www.onlinewebfonts.com/icon -->
<!DOCTYPE svg PUBLIC "-//W3C//DTD SVG 1.1//EN" "http://www.w3.org/Graphics/SVG/1.1/DTD/svg11.dtd">
<svg version="1.1" xmlns="http://www.w3.org/2000/svg" xmlns:xlink="http://www.w3.org/1999/xlink" x="0px" y="0px" viewBox="0 0 1000 1000" enable-background="new 0 0 1000 1000" xml:space="preserve">
<metadata> Svg Vector Icons : http://www.onlinewebfonts.com/icon </metadata>
<g><g transform="translate(0.000000,511.000000) scale(0.100000,-0.100000)"><path d="M213,2578c-116.4-130.7-134.8-183.8-91.9-267.5C133.4,2286,1205.4,1201.8,2506.1-99C4158.1-1750.9,4887-2467.6,4932-2483.9c49-16.4,77.6-14.3,116.4,6.1c26.6,14.3,1129.2,1104.7,2450.4,2419.7C9297.6,1736.7,9900,2349.3,9900,2384c0,28.6-49,100.1-130.7,187.9l-132.7,142.9L7333.3,413.6c-1803-1805.1-2313.5-2303.3-2354.4-2303.3c-40.8-2-496.2,447.2-2338,2297.2C1383.1,1671.4,347.8,2704.6,339.6,2704.6C333.5,2704.6,276.3,2647.5,213,2578z"/></g></g>
</svg>