<?xml version="1.0" encoding="utf-8"?>
<!-- Generator: Adobe Illustrator 24.1.1, SVG Export Plug-In . SVG Version: 6.00 Build 0)  -->
<svg version="1.1" id="Layer_1" xmlns="http://www.w3.org/2000/svg" xmlns:xlink="http://www.w3.org/1999/xlink" x="0px" y="0px"
	 viewBox="0 0 512 512" style="enable-background:new 0 0 512 512;" xml:space="preserve">
<g>
	<path d="M466.8,451.8H45.2C19.6,451.8,0,432.2,0,406.6V105.4c0-25.6,19.6-45.2,45.2-45.2h421.6c25.6,0,45.2,19.6,45.2,45.2v301.2
		C512,432.2,492.4,451.8,466.8,451.8z M45.2,90.4c-9,0-15.1,6-15.1,15.1v301.2c0,9,6,15.1,15.1,15.1h421.6c9,0,15.1-6,15.1-15.1
		V105.4c0-9-6-15.1-15.1-15.1H45.2z"/>
	<path d="M331.3,240.9c-33.1,0-60.2-27.1-60.2-60.2s27.1-60.2,60.2-60.2s60.2,27.1,60.2,60.2S364.4,240.9,331.3,240.9z M331.3,150.6
		c-16.6,0-30.1,13.6-30.1,30.1s13.6,30.1,30.1,30.1c16.6,0,30.1-13.6,30.1-30.1S347.9,150.6,331.3,150.6z"/>
	<polygon points="411.1,447.3 165.6,216.8 25.6,346.4 4.5,325.3 165.6,174.7 432.2,426.2 	"/>
	<polygon points="487.9,372 406.6,305.7 338.8,361.4 319.3,337.3 406.6,266.5 506,347.9 	"/>
</g>
</svg>
