<?xml version="1.0" encoding="utf-8"?>
<!-- Generator: Adobe Illustrator 19.0.0, SVG Export Plug-In . SVG Version: 6.00 Build 0)  -->
<svg version="1.1" id="Layer_1" xmlns="http://www.w3.org/2000/svg" xmlns:xlink="http://www.w3.org/1999/xlink" x="0px" y="0px"
	 viewBox="131 -131 512 512" style="enable-background:new 131 -131 512 512;" xml:space="preserve">
<g id="XMLID_2_">
	<path id="XMLID_12_" d="M586.7-22.6c5.1,5.1,10.2,12.8,13.7,21.3c3.4,9.4,6,17.9,6,24.7v329.4c0,7.7-2.6,14.5-7.7,19.6
		s-12,8.6-19.7,8.6H195c-7.7,0-14.5-2.6-19.6-7.7c-5.1-5.1-7.7-11.9-7.7-19.6v-457.4c0-7.7,2.6-14.5,7.7-19.6
		c5.1-5.1,11.9-7.7,19.6-7.7h256c7.7,0,16.2,1.7,24.7,6c9.4,3.4,16.2,8.5,21.3,13.7L586.7-22.6z M460.4-91.7V15.8h107.5
		c-1.7-5.1-4.3-9.4-6-11.9l-90.5-89.6C469.8-88.3,465.5-90,460.4-91.7z M569.6,344.3V51.6H451c-7.7,0-14.5-2.6-19.6-7.7
		c-5.1-5.1-7.7-11.9-7.7-19.6V-94.3H204.4v438.6L569.6,344.3L569.6,344.3z M422.8,175.3c6,5.1,14.5,10.2,23.9,16.2
		c11.1-1.7,22.2-1.7,33.3-1.7c28.2,0,45.2,4.3,50.3,13.7c3.4,4.3,3.4,9.4,0.9,14.5c0,0,0,0,0,0.9h-0.9l0,0
		c-0.9,6.8-7.7,11.1-20.5,11.1c-9.4,0-20.5-1.7-33.3-6c-12.8-3.4-24.7-8.5-37.5-15.4c-41.8,4.3-79.4,12.8-111.8,23.9
		c-29,49.5-52.1,75.1-69.1,75.1c-2.6,0-5.1-0.9-7.7-1.7l-6.8-3.4c0,0-0.9-0.9-1.7-1.7c-1.7-1.7-2.6-5.1-1.7-10.2
		c1.7-7.7,6.8-16.2,16.2-26.5c8.5-9.4,21.3-18.8,37.5-27.3c2.6-1.7,5.1-0.9,6.8,1.7l0.9,0.9c10.2-16.2,20.5-35,30.7-56.3
		c12.8-25.6,23-51.2,29.9-75.1c-4.3-15.4-7.7-30.7-8.5-45.2c-0.9-14.5-0.9-27.3,1.7-36.7c1.7-7.7,6-11.1,11.9-11.1h6
		c4.3,0,7.7,1.7,10.2,4.3c3.4,4.3,4.3,10.2,2.6,19.6c0,0.9-0.9,1.7-0.9,2.6s0,1.7,0,2.6v8.5c0,23-1.7,41.8-4.3,54.6
		C392.1,138.7,405.8,160.8,422.8,175.3z M258.1,292.3c10.2-4.3,23-19.6,39.3-45.2c-9.4,7.7-17.9,15.4-24.7,23.9
		C265.8,279.5,260.7,287.1,258.1,292.3z M372.5,29.4c-2.6,7.7-3.4,20.5-0.9,37.5c0-1.7,0.9-5.1,1.7-12.8c0-0.9,0.9-4.3,1.7-11.9
		c0-0.9,0.9-1.7,0.9-2.6c0,0,0,0,0-0.9c0,0,0,0,0-0.9c0,0,0,0,0-0.9c0-4.3-1.7-7.7-3.4-10.2C372.5,28.6,372.5,28.6,372.5,29.4
		L372.5,29.4z M336.7,218c25.6-10.2,52.9-17.9,81.1-23c0,0-1.7-0.9-3.4-2.6c-1.7-1.7-3.4-2.6-4.3-4.3
		c-14.5-12.8-26.5-29.9-36.7-50.3c-5.1,16.2-12.8,35-23.9,56.3C343.5,205.2,339.2,212.9,336.7,218z M521,213.7
		c-4.3-4.3-17.9-6.8-40.1-6.8c14.5,5.1,26.5,7.7,35.8,7.7c2.6,0,4.3,0,5.1,0C521.8,214.6,521.8,214.6,521,213.7z"/>
</g>
</svg>
