<?xml version="1.0" encoding="utf-8"?>
<!-- Generator: Adobe Illustrator 21.0.0, SVG Export Plug-In . SVG Version: 6.00 Build 0)  -->
<svg version="1.1" id="Layer_1" xmlns="http://www.w3.org/2000/svg" xmlns:xlink="http://www.w3.org/1999/xlink" x="0px" y="0px"
	 viewBox="0 0 512 512" style="enable-background:new 0 0 512 512;" xml:space="preserve">
<g>
	<path d="M205.7,235.4c-2.5,0-4.6,2.1-4.6,4.6v157.7c0,2.5,2.1,4.6,4.6,4.6h18.6c2.5,0,4.6-2.1,4.6-4.6v-54.6H265
		c33.9,0,55-22.2,55-53.8c0-31.1-20.7-53.9-54.9-53.9L205.7,235.4L205.7,235.4z M291.8,289.3c0,24.8-15.1,31-40.7,31h-22.2v-61.9
		H261C280.3,258.4,291.8,269.7,291.8,289.3z M451.8,128.3l-123-123c-3.4-3.4-8.1-5.4-12.9-5.4H73.1C63,0,54.9,8.2,54.9,18.3v475.4
		c0,10.1,8.2,18.3,18.3,18.3h365.7c10.1,0,18.3-8.2,18.3-18.3V141.3C457.1,136.5,455.2,131.8,451.8,128.3z M415,149.7H307.4V42.2
		L415,149.7z M416,470.9H96V41.1h172.6v123.4c0,13.3,10.7,24,24,24H416V470.9z"/>
</g>
</svg>
