<?xml version="1.0" encoding="utf-8"?>
<!-- Generator: Adobe Illustrator 19.0.0, SVG Export Plug-In . SVG Version: 6.00 Build 0)  -->
<svg version="1.1" id="Layer_1" xmlns="http://www.w3.org/2000/svg" xmlns:xlink="http://www.w3.org/1999/xlink" x="0px" y="0px"
	 viewBox="0 0 512 512" style="enable-background:new 0 0 512 512;" xml:space="preserve">
<g id="XMLID_1_">
	<path id="XMLID_15_" d="M291.4,0H60.5v512h391V160.1L291.4,0z M301.6,52.1l98.7,97.7h-98.7V52.1z M90.3,482.2V29.8h90.3v30.7h29.8
		V30.7h60.5v150.8h150.8v301.6H90.3V482.2z M150.8,241.1h29.8v29.8h-29.8V241.1z M180.6,241.1v-29.8h29.8v29.8H180.6z M180.6,180.6
		v-29.8h29.8v29.8H180.6z M150.8,180.6h29.8v29.8h-29.8V180.6z M150.8,120.1h29.8v29.8h-29.8V120.1z M180.6,120.1V90.3h29.8v29.8
		H180.6z M150.8,60.5h29.8v29.8h-29.8V60.5z M180.6,283c-33.5,0-60.5,27-60.5,60.5s27,60.5,60.5,60.5c1.9,0,3.7,0,6.5-0.9
		c19.5-1.9,36.3-14,46.5-30.7c4.7-9.3,7.4-18.6,7.4-28.9C241.1,310,214.1,283,180.6,283z M206.7,357.5c-4.7,8.4-13,14-23.3,15.8
		h-3.7c-16.8,0-29.8-14-29.8-29.8c0-16.8,14-29.8,29.8-29.8s29.8,14,29.8,29.8C210.4,348.2,209.5,352.8,206.7,357.5z"/>
</g>
</svg>
